<svg width="32" height="32" viewBox="0 0 32 32" fill="none" xmlns="http://www.w3.org/2000/svg">
<rect width="32" height="32" rx="16" fill="#969696"/>
<path d="M24.898 23.6014C23.5812 21.325 21.5521 19.6927 19.1841 18.919C20.3555 18.2217 21.2655 17.1591 21.7745 15.8946C22.2835 14.63 22.3634 13.2333 22.0018 11.919C21.6402 10.6047 20.8571 9.44538 19.7729 8.61915C18.6886 7.79293 17.3632 7.34546 16 7.34546C14.6368 7.34546 13.3114 7.79293 12.2271 8.61915C11.1429 9.44538 10.3598 10.6047 9.99824 11.919C9.63664 13.2333 9.71647 14.63 10.2255 15.8946C10.7345 17.1591 11.6445 18.2217 12.8159 18.919C10.4479 19.6919 8.41876 21.3241 7.10205 23.6014C7.05376 23.6801 7.02173 23.7677 7.00785 23.859C6.99397 23.9503 6.99852 24.0435 7.02123 24.133C7.04394 24.2225 7.08435 24.3066 7.14008 24.3803C7.19581 24.4539 7.26572 24.5157 7.3457 24.5619C7.42568 24.6081 7.5141 24.6378 7.60574 24.6492C7.69739 24.6607 7.7904 24.6537 7.8793 24.6286C7.96819 24.6036 8.05117 24.561 8.12333 24.5033C8.19549 24.4457 8.25538 24.3742 8.29945 24.293C9.92826 21.478 12.8072 19.7973 16 19.7973C19.1928 19.7973 22.0717 21.478 23.7006 24.293C23.7446 24.3742 23.8045 24.4457 23.8767 24.5033C23.9488 24.561 24.0318 24.6036 24.1207 24.6286C24.2096 24.6537 24.3026 24.6607 24.3943 24.6492C24.4859 24.6378 24.5743 24.6081 24.6543 24.5619C24.7343 24.5157 24.8042 24.4539 24.8599 24.3803C24.9156 24.3066 24.9561 24.2225 24.9788 24.133C25.0015 24.0435 25.006 23.9503 24.9921 23.859C24.9783 23.7677 24.9462 23.6801 24.898 23.6014ZM11.1585 13.5726C11.1585 12.615 11.4425 11.679 11.9745 10.8828C12.5064 10.0866 13.2626 9.46607 14.1472 9.09963C15.0319 8.73319 16.0054 8.63731 16.9445 8.82412C17.8837 9.01093 18.7464 9.47204 19.4234 10.1491C20.1005 10.8262 20.5616 11.6889 20.7485 12.628C20.9353 13.5672 20.8394 14.5407 20.4729 15.4253C20.1065 16.31 19.486 17.0661 18.6898 17.5981C17.8936 18.1301 16.9576 18.4141 16 18.4141C14.7164 18.4127 13.4857 17.9022 12.5781 16.9945C11.6704 16.0868 11.1599 14.8562 11.1585 13.5726Z" fill="white"/>
</svg>