<svg version="1.1" id="Layer_1" xmlns="http://www.w3.org/2000/svg" xmlns:xlink="http://www.w3.org/1999/xlink" x="0px" y="0px"
  viewBox="-50 50 400 200" xml:space="preserve">
  <style type="text/css">
    .st0{fill:none;}
    .st1{fill:#fff;}
  </style>
  <rect x="12" y="100" class="st0" width="270" height="100"/>
  <path class="st1" d="M157.57,149.43c0,22.74-17.13,40.47-41.53,40.47c-23.59,0-41.54-18.43-41.54-41.17
    c0-22.74,17.87-41.45,40.66-41.45S157.57,123.15,157.57,149.43z M116.15,123.51c-13.71,0-25.23,11.21-25.23,25.38
    c0,14.17,11.52,25.94,25.23,25.94c13.71,0,26.17-11.08,26.17-25.25C142.32,135.41,129.86,123.51,116.15,123.51z"/>
  <path class="st1" d="M267.44,187.4v-40.37h-23.67v14.88h7.32v11.97c-11.55,0-20.89-14.16-21.08-24.06
    c-0.25-12.7,9.64-25.63,25.44-25.94c6.38,0,8.65,1.55,11.87,2.72v-17.14c-4.8-1.94-10.54-2.2-12.69-2.2
    c-8.02,0-14.36,2.22-20.52,5.82c-12.37,7.25-20.33,19.28-20.33,35.06c0,21.87,17.23,41.28,39.96,41.28
    C259.42,189.41,264.6,188.5,267.44,187.4z"/>
  <path class="st1" d="M185.17,108.63c-15.57,0-27.61,10.03-27.61,24.67v55.16h16.46v-53.13c0-5.44,4.89-10.09,11.75-10.09
    c8.53,0,11.8,5.29,11.8,10.09v53.13h16.46V133.3C214.04,118.66,199.5,108.63,185.17,108.63z"/>
  <path class="st1" d="M76.05,134.69c0,16.24-12.99,25.39-24.83,25.39h-9.06v30.2h-16v-80.13h24.07
    C63.03,110.15,76.05,119.15,76.05,134.69z M60.22,135.18c0-10.19-9.51-10.53-9.51-10.53h-8.84v20.26h9.05
    C50.92,144.91,60.22,144.46,60.22,135.18z"/>
</svg>